# xmcd CD database file
#
# Track frame offsets:
#	150
#	15235
#	35486
#	49053
#	65089
#	80190
#	97213
#	110852
#	126900
#	144416
#	157626
#	171208
#
# Disc length: 2491 seconds
#
# Revision: 1
# Processed by: cddbd v1.5.2PL0 Copyright (c) Steve Scherf et al.
# Submitted via: CDex 1.70beta2
#
DISCID=a409b90c
DTITLE=Various Artist - Body and Soul - the 70's - Natural High
DYEAR=2005
DGENRE=R&B
TTITLE0=That Lady (Part 1) - The Isley Brothers
TTITLE1=After The Love Has Gone - Earth, Wind and Fire
TTITLE2=I Want To Take You Higher - Sly and The Family Stone
TTITLE3=(If Loving You Is Wrong) I Don't Want To Be Right - Luther Ingram
TTITLE4=Lady Marmalade - Labelle (featuring Patti LaBelle)
TTITLE5=Best Thing That Ever Happened To Me - Gladys Knight and the Pips
TTITLE6=Groove Me - King Floyd
TTITLE7=Kiss And Say Goodbye - The Manhattans
TTITLE8=You Don't Have To Be A Star (To Be In My Show) - Marilyn McCoo and Billy Davis, Jr.
TTITLE9=Turn Back The Hands Of Time - Tyrone Davis
TTITLE10=When Will I See You Again The - Three Degrees
TTITLE11=If You Don't Know Me By Now - Harold Melvin and The Blue Notes
EXTD=YEAR: 2005
EXTT0=
EXTT1=
EXTT2=
EXTT3=
EXTT4=
EXTT5=
EXTT6=
EXTT7=
EXTT8=
EXTT9=
EXTT10=
EXTT11=
PLAYORDER=
